<svg xmlns="http://www.w3.org/2000/svg" id="export" class="canvas" preserveAspectRatio="xMidYMid meet" style="" width="92" height="340"><rect id="background" fill="#fff" pointer-events="all" width="92" height="340"/><g id="origin" transform="translate(4.1646972656250005, 4.1646972656250005) scale(1)"><g id="clusters" class="clusters"/><g id="edge-paths" class="edge-paths"><defs><marker id="arrowhead" viewBox="0 0 10 10" refX="9" refY="5" markerUnits="strokeWidth" markerWidth="8" markerHeight="6" orient="auto" style="fill: rgb(0, 0, 0);"><path d="M 0 0 L 10 5 L 0 10 L 4 5 z" style="stroke-width: 1;"/></marker><marker id="arrowhead-select" viewBox="0 0 10 10" refX="9" refY="5" markerUnits="strokeWidth" markerWidth="8" markerHeight="6" orient="auto" style="fill: rgb(238, 0, 0);"><path d="M 0 0 L 10 5 L 0 10 L 4 5 z" style="stroke-width: 1;"/></marker><marker id="arrowhead-hover" viewBox="0 0 10 10" refX="9" refY="5" markerUnits="strokeWidth" markerWidth="8" markerHeight="6" orient="auto"><path d="M 0 0 L 10 5 L 0 10 L 4 5 z" style="stroke-width: 1;"/></marker></defs><path id="edge-features" class="edge-path" d="M37.5,23L37.5,24.666666666666668C37.5,26.333333333333332,37.5,29.666666666666668,37.5,35C37.5,40.333333333333336,37.5,47.666666666666664,37.5,55C37.5,62.333333333333336,37.5,69.66666666666667,37.5,75C37.5,80.33333333333333,37.5,83.66666666666667,37.5,85.33333333333333L37.5,87" style="stroke: rgb(0, 0, 0); stroke-width: 1px; fill: none; marker-end: url(&quot;#arrowhead&quot;);"/><path class="edge-path-hit-test" d="M37.5,23L37.5,24.666666666666668C37.5,26.333333333333332,37.5,29.666666666666668,37.5,35C37.5,40.333333333333336,37.5,47.666666666666664,37.5,55C37.5,62.333333333333336,37.5,69.66666666666667,37.5,75C37.5,80.33333333333333,37.5,83.66666666666667,37.5,85.33333333333333L37.5,87" style="pointer-events: stroke; stroke-width: 0.5em; fill: none; stroke: rgb(0, 0, 0); stroke-opacity: 0.001;"/><path id="edge-/network/network.0/Gemm_output_0" class="edge-path" d="M37.5,144L37.5,145.66666666666666C37.5,147.33333333333334,37.5,150.66666666666666,37.5,154C37.5,157.33333333333334,37.5,160.66666666666666,37.5,162.33333333333334L37.5,164" style="stroke: rgb(0, 0, 0); stroke-width: 1px; fill: none; marker-end: url(&quot;#arrowhead&quot;);"/><path class="edge-path-hit-test" d="M37.5,144L37.5,145.66666666666666C37.5,147.33333333333334,37.5,150.66666666666666,37.5,154C37.5,157.33333333333334,37.5,160.66666666666666,37.5,162.33333333333334L37.5,164" style="pointer-events: stroke; stroke-width: 0.5em; fill: none; stroke: rgb(0, 0, 0); stroke-opacity: 0.001;"/><path id="edge-/network/network.1/LeakyRelu_output_0" class="edge-path" d="M37.5,187L37.5,188.66666666666666C37.5,190.33333333333334,37.5,193.66666666666666,37.5,197C37.5,200.33333333333334,37.5,203.66666666666666,37.5,205.33333333333334L37.5,207" style="stroke: rgb(0, 0, 0); stroke-width: 1px; fill: none; marker-end: url(&quot;#arrowhead&quot;);"/><path class="edge-path-hit-test" d="M37.5,187L37.5,188.66666666666666C37.5,190.33333333333334,37.5,193.66666666666666,37.5,197C37.5,200.33333333333334,37.5,203.66666666666666,37.5,205.33333333333334L37.5,207" style="pointer-events: stroke; stroke-width: 0.5em; fill: none; stroke: rgb(0, 0, 0); stroke-opacity: 0.001;"/><path id="edge-logits" class="edge-path" d="M37.5,264L37.5,267.6666666666667C37.5,271.3333333333333,37.5,278.6666666666667,37.5,286C37.5,293.3333333333333,37.5,300.6666666666667,37.5,304.3333333333333L37.5,308" style="stroke: rgb(0, 0, 0); stroke-width: 1px; fill: none; marker-end: url(&quot;#arrowhead&quot;);"/><path class="edge-path-hit-test" d="M37.5,264L37.5,267.6666666666667C37.5,271.3333333333333,37.5,278.6666666666667,37.5,286C37.5,293.3333333333333,37.5,300.6666666666667,37.5,304.3333333333333L37.5,308" style="pointer-events: stroke; stroke-width: 0.5em; fill: none; stroke: rgb(0, 0, 0); stroke-opacity: 0.001;"/></g><g id="edge-labels" class="edge-labels"><text class="edge-label" id="edge-label-edge-features" style="opacity: 1; font-family: -apple-system, BlinkMacSystemFont, &quot;Segoe WPC&quot;, &quot;Segoe UI&quot;, Ubuntu, &quot;Droid Sans&quot;, sans-serif, &quot;PingFang SC&quot;; font-size: 10px;" transform="translate(42.5,48)"><tspan xml:space="preserve" dy="1em" x="1">1791×16</tspan></text><text class="edge-label" id="edge-label-edge-logits" style="opacity: 1; font-family: -apple-system, BlinkMacSystemFont, &quot;Segoe WPC&quot;, &quot;Segoe UI&quot;, Ubuntu, &quot;Droid Sans&quot;, sans-serif, &quot;PingFang SC&quot;; font-size: 10px;" transform="translate(42.5,279)"><tspan xml:space="preserve" dy="1em" x="1">1791×1</tspan></text></g><g id="nodes" class="nodes"><g id="input-name-features" class="node graph-input" style="opacity: 1;" transform="translate(10.83935546875,0)"><g class="node-item graph-item-input" transform="translate(0,0)"><path d="M5,0h43.3212890625a5,5 0 0 1 5,5v13a5,5 0 0 1 -5,5h-43.3212890625a5,5 0 0 1 -5,-5v-13a5,5 0 0 1 5,-5z" style="stroke: rgb(0, 0, 0); fill: rgb(238, 238, 238); stroke-width: 0;"/><text x="6" y="16" style="font-family: -apple-system, BlinkMacSystemFont, &quot;Segoe WPC&quot;, &quot;Segoe UI&quot;, Ubuntu, &quot;Droid Sans&quot;, sans-serif, &quot;PingFang SC&quot;; font-size: 11px; text-rendering: geometricprecision; user-select: none;">features</text><title>float32[1791,16]</title></g><path class="node border" d="M5,0h43.3212890625a5,5 0 0 1 5,5v13a5,5 0 0 1 -5,5h-43.3212890625a5,5 0 0 1 -5,-5v-13a5,5 0 0 1 5,-5z" style="stroke: rgb(51, 51, 51); fill: none; stroke-width: 1px;"/></g><g id="node-name-/network/network.0/Gemm" class="node graph-node" style="opacity: 1;" transform="translate(0,87)"><g class="node-item node-item-type node-item-type-layer" transform="translate(0,0)"><path d="M5,0h65a5,5 0 0 1 5,5v18a0,0 0 0 1 0,0h-75a0,0 0 0 1 0,0v-18a5,5 0 0 1 5,-5z" style="stroke: rgb(0, 0, 0); fill: rgb(51, 85, 136); stroke-width: 0;"/><text x="6" y="16" style="font-family: -apple-system, BlinkMacSystemFont, &quot;Segoe WPC&quot;, &quot;Segoe UI&quot;, Ubuntu, &quot;Droid Sans&quot;, sans-serif, &quot;PingFang SC&quot;; font-size: 11px; text-rendering: geometricprecision; user-select: none; fill: rgb(255, 255, 255);">Gemm</text><title>/network/network.0/Gemm</title></g><g class="node-attribute" transform="translate(0,23)"><path d="M0,0h75a0,0 0 0 1 0,0v29a5,5 0 0 1 -5,5h-65a5,5 0 0 1 -5,-5v-29a0,0 0 0 1 0,0z" style="stroke: rgb(0, 0, 0); fill: rgb(255, 255, 255); stroke-width: 0;"/><text xml:space="preserve" x="6" y="14" style="font-family: -apple-system, BlinkMacSystemFont, &quot;Segoe WPC&quot;, &quot;Segoe UI&quot;, Ubuntu, &quot;Droid Sans&quot;, sans-serif, &quot;PingFang SC&quot;; font-size: 9px; font-weight: normal; text-rendering: geometricprecision; user-select: none;"><title>float32[64,16]</title><tspan style="font-weight: bold;">B</tspan><tspan>〈64×16〉</tspan></text><text xml:space="preserve" x="6" y="28" style="font-family: -apple-system, BlinkMacSystemFont, &quot;Segoe WPC&quot;, &quot;Segoe UI&quot;, Ubuntu, &quot;Droid Sans&quot;, sans-serif, &quot;PingFang SC&quot;; font-size: 9px; font-weight: normal; text-rendering: geometricprecision; user-select: none;"><title>float32[64]</title><tspan style="font-weight: bold;">C</tspan><tspan>〈64〉</tspan></text><line class="node" x1="0" x2="75" y1="0" y2="0" style="stroke: rgb(51, 51, 51); fill: none; stroke-width: 1px;"/></g><path class="node border" d="M5,0h65a5,5 0 0 1 5,5v47a5,5 0 0 1 -5,5h-65a5,5 0 0 1 -5,-5v-47a5,5 0 0 1 5,-5z" style="stroke: rgb(51, 51, 51); fill: none; stroke-width: 1px;"/></g><g id="node-name-/network/network.1/LeakyRelu" class="node graph-node" style="opacity: 1;" transform="translate(6.390625,164)"><g class="node-item node-item-type node-item-type-activation" transform="translate(0,0)"><path d="M5,0h52.21875a5,5 0 0 1 5,5v13a5,5 0 0 1 -5,5h-52.21875a5,5 0 0 1 -5,-5v-13a5,5 0 0 1 5,-5z" style="stroke: rgb(0, 0, 0); fill: rgb(112, 41, 33); stroke-width: 0;"/><text x="6" y="16" style="font-family: -apple-system, BlinkMacSystemFont, &quot;Segoe WPC&quot;, &quot;Segoe UI&quot;, Ubuntu, &quot;Droid Sans&quot;, sans-serif, &quot;PingFang SC&quot;; font-size: 11px; text-rendering: geometricprecision; user-select: none; fill: rgb(255, 255, 255);">LeakyRelu</text><title>/network/network.1/LeakyRelu</title></g><path class="node border" d="M5,0h52.21875a5,5 0 0 1 5,5v13a5,5 0 0 1 -5,5h-52.21875a5,5 0 0 1 -5,-5v-13a5,5 0 0 1 5,-5z" style="stroke: rgb(51, 51, 51); fill: none; stroke-width: 1px;"/></g><g id="node-name-/network/network.2/Gemm" class="node graph-node" style="opacity: 1;" transform="translate(0,207)"><g class="node-item node-item-type node-item-type-layer" transform="translate(0,0)"><path d="M5,0h65a5,5 0 0 1 5,5v18a0,0 0 0 1 0,0h-75a0,0 0 0 1 0,0v-18a5,5 0 0 1 5,-5z" style="stroke: rgb(0, 0, 0); fill: rgb(51, 85, 136); stroke-width: 0;"/><text x="6" y="16" style="font-family: -apple-system, BlinkMacSystemFont, &quot;Segoe WPC&quot;, &quot;Segoe UI&quot;, Ubuntu, &quot;Droid Sans&quot;, sans-serif, &quot;PingFang SC&quot;; font-size: 11px; text-rendering: geometricprecision; user-select: none; fill: rgb(255, 255, 255);">Gemm</text><title>/network/network.2/Gemm</title></g><g class="node-attribute" transform="translate(0,23)"><path d="M0,0h75a0,0 0 0 1 0,0v29a5,5 0 0 1 -5,5h-65a5,5 0 0 1 -5,-5v-29a0,0 0 0 1 0,0z" style="stroke: rgb(0, 0, 0); fill: rgb(255, 255, 255); stroke-width: 0;"/><text xml:space="preserve" x="6" y="14" style="font-family: -apple-system, BlinkMacSystemFont, &quot;Segoe WPC&quot;, &quot;Segoe UI&quot;, Ubuntu, &quot;Droid Sans&quot;, sans-serif, &quot;PingFang SC&quot;; font-size: 9px; font-weight: normal; text-rendering: geometricprecision; user-select: none;"><title>float32[1,64]</title><tspan style="font-weight: bold;">B</tspan><tspan>〈1×64〉</tspan></text><text xml:space="preserve" x="6" y="28" style="font-family: -apple-system, BlinkMacSystemFont, &quot;Segoe WPC&quot;, &quot;Segoe UI&quot;, Ubuntu, &quot;Droid Sans&quot;, sans-serif, &quot;PingFang SC&quot;; font-size: 9px; font-weight: normal; text-rendering: geometricprecision; user-select: none;"><title>float32[1]</title><tspan style="font-weight: bold;">C</tspan><tspan>〈1〉</tspan></text><line class="node" x1="0" x2="75" y1="0" y2="0" style="stroke: rgb(51, 51, 51); fill: none; stroke-width: 1px;"/></g><path class="node border" d="M5,0h65a5,5 0 0 1 5,5v47a5,5 0 0 1 -5,5h-65a5,5 0 0 1 -5,-5v-47a5,5 0 0 1 5,-5z" style="stroke: rgb(51, 51, 51); fill: none; stroke-width: 1px;"/></g><g class="node" style="opacity: 1;" transform="translate(17.0107421875,308)"><g class="node-item graph-item-output" transform="translate(0,0)"><path d="M5,0h30.978515625a5,5 0 0 1 5,5v13a5,5 0 0 1 -5,5h-30.978515625a5,5 0 0 1 -5,-5v-13a5,5 0 0 1 5,-5z" style="stroke: rgb(0, 0, 0); fill: rgb(238, 238, 238); stroke-width: 0;"/><text x="6" y="16" style="font-family: -apple-system, BlinkMacSystemFont, &quot;Segoe WPC&quot;, &quot;Segoe UI&quot;, Ubuntu, &quot;Droid Sans&quot;, sans-serif, &quot;PingFang SC&quot;; font-size: 11px; text-rendering: geometricprecision; user-select: none;">logits</text><title>float32[1791,1]</title></g><path class="node border" d="M5,0h30.978515625a5,5 0 0 1 5,5v13a5,5 0 0 1 -5,5h-30.978515625a5,5 0 0 1 -5,-5v-13a5,5 0 0 1 5,-5z" style="stroke: rgb(51, 51, 51); fill: none; stroke-width: 1px;"/></g></g></g></svg>